<mxfile host="65bd71144e">
    <diagram id="WB7Cjo0ZRdFqvf04XSwD" name="第 1 页">
        <mxGraphModel dx="860" dy="514" grid="0" gridSize="10" guides="1" tooltips="1" connect="1" arrows="1" fold="1" page="0" pageScale="1" pageWidth="827" pageHeight="1169" background="none" math="0" shadow="0">
            <root>
                <mxCell id="0"/>
                <mxCell id="1" parent="0"/>
                <mxCell id="8" value="" style="endArrow=none;html=1;" parent="1" edge="1">
                    <mxGeometry width="50" height="50" relative="1" as="geometry">
                        <mxPoint x="103" y="160" as="sourcePoint"/>
                        <mxPoint x="279" y="160" as="targetPoint"/>
                    </mxGeometry>
                </mxCell>
                <mxCell id="9" value="" style="endArrow=none;html=1;" parent="1" edge="1">
                    <mxGeometry width="50" height="50" relative="1" as="geometry">
                        <mxPoint x="290" y="240" as="sourcePoint"/>
                        <mxPoint x="279" y="160" as="targetPoint"/>
                    </mxGeometry>
                </mxCell>
                <mxCell id="10" value="" style="endArrow=none;html=1;" parent="1" edge="1">
                    <mxGeometry width="50" height="50" relative="1" as="geometry">
                        <mxPoint x="290" y="240" as="sourcePoint"/>
                        <mxPoint x="295" y="169" as="targetPoint"/>
                    </mxGeometry>
                </mxCell>
                <mxCell id="11" value="" style="endArrow=none;html=1;" parent="1" edge="1">
                    <mxGeometry width="50" height="50" relative="1" as="geometry">
                        <mxPoint x="295" y="170" as="sourcePoint"/>
                        <mxPoint x="303" y="231" as="targetPoint"/>
                    </mxGeometry>
                </mxCell>
                <mxCell id="12" value="" style="endArrow=none;html=1;" parent="1" edge="1">
                    <mxGeometry width="50" height="50" relative="1" as="geometry">
                        <mxPoint x="303" y="231" as="sourcePoint"/>
                        <mxPoint x="309" y="189" as="targetPoint"/>
                    </mxGeometry>
                </mxCell>
                <mxCell id="13" value="" style="endArrow=none;html=1;" parent="1" edge="1">
                    <mxGeometry width="50" height="50" relative="1" as="geometry">
                        <mxPoint x="309" y="189" as="sourcePoint"/>
                        <mxPoint x="314" y="245" as="targetPoint"/>
                    </mxGeometry>
                </mxCell>
                <mxCell id="14" value="" style="endArrow=none;html=1;" parent="1" edge="1">
                    <mxGeometry width="50" height="50" relative="1" as="geometry">
                        <mxPoint x="314" y="245" as="sourcePoint"/>
                        <mxPoint x="583" y="245" as="targetPoint"/>
                    </mxGeometry>
                </mxCell>
                <mxCell id="16" value="" style="endArrow=none;html=1;" parent="1" edge="1">
                    <mxGeometry width="50" height="50" relative="1" as="geometry">
                        <mxPoint x="583" y="245" as="sourcePoint"/>
                        <mxPoint x="588" y="174" as="targetPoint"/>
                    </mxGeometry>
                </mxCell>
                <mxCell id="17" value="" style="endArrow=none;html=1;" parent="1" edge="1">
                    <mxGeometry width="50" height="50" relative="1" as="geometry">
                        <mxPoint x="588" y="175" as="sourcePoint"/>
                        <mxPoint x="596" y="236" as="targetPoint"/>
                    </mxGeometry>
                </mxCell>
                <mxCell id="18" value="" style="endArrow=none;html=1;" parent="1" edge="1">
                    <mxGeometry width="50" height="50" relative="1" as="geometry">
                        <mxPoint x="596" y="236" as="sourcePoint"/>
                        <mxPoint x="602" y="194" as="targetPoint"/>
                    </mxGeometry>
                </mxCell>
                <mxCell id="19" value="" style="endArrow=none;html=1;" parent="1" edge="1">
                    <mxGeometry width="50" height="50" relative="1" as="geometry">
                        <mxPoint x="602" y="194" as="sourcePoint"/>
                        <mxPoint x="607" y="238" as="targetPoint"/>
                    </mxGeometry>
                </mxCell>
                <mxCell id="20" value="" style="endArrow=none;html=1;" parent="1" edge="1">
                    <mxGeometry width="50" height="50" relative="1" as="geometry">
                        <mxPoint x="607" y="238" as="sourcePoint"/>
                        <mxPoint x="616" y="159" as="targetPoint"/>
                    </mxGeometry>
                </mxCell>
                <mxCell id="21" value="" style="endArrow=none;html=1;" parent="1" edge="1">
                    <mxGeometry width="50" height="50" relative="1" as="geometry">
                        <mxPoint x="616" y="159" as="sourcePoint"/>
                        <mxPoint x="812" y="159" as="targetPoint"/>
                    </mxGeometry>
                </mxCell>
                <mxCell id="22" value="&lt;font style=&quot;font-size: 15px&quot;&gt;按键按下&lt;/font&gt;" style="text;html=1;strokeColor=none;fillColor=none;align=center;verticalAlign=middle;whiteSpace=wrap;rounded=0;" parent="1" vertex="1">
                    <mxGeometry x="100" y="113" width="86" height="30" as="geometry"/>
                </mxCell>
                <mxCell id="23" value="" style="shape=curlyBracket;whiteSpace=wrap;html=1;rounded=1;flipH=1;rotation=90;" vertex="1" parent="1">
                    <mxGeometry x="285" y="251" width="20" height="39" as="geometry"/>
                </mxCell>
                <mxCell id="24" value="" style="shape=curlyBracket;whiteSpace=wrap;html=1;rounded=1;flipH=1;rotation=90;size=0.5;" vertex="1" parent="1">
                    <mxGeometry x="594" y="251" width="20" height="39" as="geometry"/>
                </mxCell>
                <mxCell id="26" value="&lt;font style=&quot;font-size: 15px&quot;&gt;抖动&lt;/font&gt;" style="text;html=1;strokeColor=none;fillColor=none;align=center;verticalAlign=middle;whiteSpace=wrap;rounded=0;" vertex="1" parent="1">
                    <mxGeometry x="265" y="287" width="60" height="30" as="geometry"/>
                </mxCell>
                <mxCell id="27" value="&lt;font style=&quot;font-size: 15px&quot;&gt;抖动&lt;/font&gt;" style="text;html=1;strokeColor=none;fillColor=none;align=center;verticalAlign=middle;whiteSpace=wrap;rounded=0;" vertex="1" parent="1">
                    <mxGeometry x="574" y="287" width="60" height="30" as="geometry"/>
                </mxCell>
                <mxCell id="28" value="&lt;font style=&quot;font-size: 15px&quot;&gt;1&lt;/font&gt;" style="text;html=1;strokeColor=none;fillColor=none;align=center;verticalAlign=middle;whiteSpace=wrap;rounded=0;fontSize=15;" vertex="1" parent="1">
                    <mxGeometry x="68" y="143" width="60" height="30" as="geometry"/>
                </mxCell>
                <mxCell id="29" value="0" style="text;html=1;strokeColor=none;fillColor=none;align=center;verticalAlign=middle;whiteSpace=wrap;rounded=0;fontSize=15;" vertex="1" parent="1">
                    <mxGeometry x="415" y="221" width="60" height="30" as="geometry"/>
                </mxCell>
                <mxCell id="30" value="抖动大约20ms" style="text;html=1;strokeColor=none;fillColor=none;align=center;verticalAlign=middle;whiteSpace=wrap;rounded=0;fontSize=15;" vertex="1" parent="1">
                    <mxGeometry x="119" y="287" width="143" height="30" as="geometry"/>
                </mxCell>
            </root>
        </mxGraphModel>
    </diagram>
    <diagram id="R2yqi1B-CsELLnVN5k38" name="第 2 页">
        <mxGraphModel dx="860" dy="514" grid="0" gridSize="10" guides="1" tooltips="1" connect="1" arrows="1" fold="1" page="0" pageScale="1" pageWidth="827" pageHeight="1169" math="0" shadow="0">
            <root>
                <mxCell id="LsJTqf0f365lwNpj21zO-0"/>
                <mxCell id="LsJTqf0f365lwNpj21zO-1" parent="LsJTqf0f365lwNpj21zO-0"/>
                <mxCell id="LsJTqf0f365lwNpj21zO-2" value="" style="endArrow=none;html=1;" edge="1" parent="LsJTqf0f365lwNpj21zO-1">
                    <mxGeometry width="50" height="50" relative="1" as="geometry">
                        <mxPoint x="225" y="187" as="sourcePoint"/>
                        <mxPoint x="401" y="187" as="targetPoint"/>
                    </mxGeometry>
                </mxCell>
                <mxCell id="LsJTqf0f365lwNpj21zO-3" value="" style="endArrow=none;html=1;" edge="1" parent="LsJTqf0f365lwNpj21zO-1">
                    <mxGeometry width="50" height="50" relative="1" as="geometry">
                        <mxPoint x="412" y="267" as="sourcePoint"/>
                        <mxPoint x="401" y="187" as="targetPoint"/>
                    </mxGeometry>
                </mxCell>
                <mxCell id="LsJTqf0f365lwNpj21zO-4" value="" style="endArrow=none;html=1;" edge="1" parent="LsJTqf0f365lwNpj21zO-1">
                    <mxGeometry width="50" height="50" relative="1" as="geometry">
                        <mxPoint x="412" y="267" as="sourcePoint"/>
                        <mxPoint x="417" y="196" as="targetPoint"/>
                    </mxGeometry>
                </mxCell>
                <mxCell id="LsJTqf0f365lwNpj21zO-5" value="" style="endArrow=none;html=1;" edge="1" parent="LsJTqf0f365lwNpj21zO-1">
                    <mxGeometry width="50" height="50" relative="1" as="geometry">
                        <mxPoint x="417" y="197" as="sourcePoint"/>
                        <mxPoint x="425" y="258" as="targetPoint"/>
                    </mxGeometry>
                </mxCell>
                <mxCell id="LsJTqf0f365lwNpj21zO-6" value="" style="endArrow=none;html=1;" edge="1" parent="LsJTqf0f365lwNpj21zO-1">
                    <mxGeometry width="50" height="50" relative="1" as="geometry">
                        <mxPoint x="425" y="258" as="sourcePoint"/>
                        <mxPoint x="431" y="216" as="targetPoint"/>
                    </mxGeometry>
                </mxCell>
                <mxCell id="LsJTqf0f365lwNpj21zO-7" value="" style="endArrow=none;html=1;" edge="1" parent="LsJTqf0f365lwNpj21zO-1">
                    <mxGeometry width="50" height="50" relative="1" as="geometry">
                        <mxPoint x="431" y="216" as="sourcePoint"/>
                        <mxPoint x="436" y="272" as="targetPoint"/>
                    </mxGeometry>
                </mxCell>
                <mxCell id="LsJTqf0f365lwNpj21zO-8" value="" style="endArrow=none;html=1;" edge="1" parent="LsJTqf0f365lwNpj21zO-1">
                    <mxGeometry width="50" height="50" relative="1" as="geometry">
                        <mxPoint x="436" y="272" as="sourcePoint"/>
                        <mxPoint x="705" y="272" as="targetPoint"/>
                    </mxGeometry>
                </mxCell>
                <mxCell id="LsJTqf0f365lwNpj21zO-9" value="" style="endArrow=none;html=1;" edge="1" parent="LsJTqf0f365lwNpj21zO-1">
                    <mxGeometry width="50" height="50" relative="1" as="geometry">
                        <mxPoint x="705" y="272" as="sourcePoint"/>
                        <mxPoint x="710" y="201" as="targetPoint"/>
                    </mxGeometry>
                </mxCell>
                <mxCell id="LsJTqf0f365lwNpj21zO-10" value="" style="endArrow=none;html=1;" edge="1" parent="LsJTqf0f365lwNpj21zO-1">
                    <mxGeometry width="50" height="50" relative="1" as="geometry">
                        <mxPoint x="710" y="202" as="sourcePoint"/>
                        <mxPoint x="718" y="263" as="targetPoint"/>
                    </mxGeometry>
                </mxCell>
                <mxCell id="LsJTqf0f365lwNpj21zO-11" value="" style="endArrow=none;html=1;" edge="1" parent="LsJTqf0f365lwNpj21zO-1">
                    <mxGeometry width="50" height="50" relative="1" as="geometry">
                        <mxPoint x="718" y="263" as="sourcePoint"/>
                        <mxPoint x="724" y="221" as="targetPoint"/>
                    </mxGeometry>
                </mxCell>
                <mxCell id="LsJTqf0f365lwNpj21zO-12" value="" style="endArrow=none;html=1;" edge="1" parent="LsJTqf0f365lwNpj21zO-1">
                    <mxGeometry width="50" height="50" relative="1" as="geometry">
                        <mxPoint x="724" y="221" as="sourcePoint"/>
                        <mxPoint x="729" y="264.9999999999999" as="targetPoint"/>
                    </mxGeometry>
                </mxCell>
                <mxCell id="LsJTqf0f365lwNpj21zO-13" value="" style="endArrow=none;html=1;" edge="1" parent="LsJTqf0f365lwNpj21zO-1">
                    <mxGeometry width="50" height="50" relative="1" as="geometry">
                        <mxPoint x="729" y="264.9999999999999" as="sourcePoint"/>
                        <mxPoint x="738" y="186" as="targetPoint"/>
                    </mxGeometry>
                </mxCell>
                <mxCell id="LsJTqf0f365lwNpj21zO-14" value="" style="endArrow=none;html=1;" edge="1" parent="LsJTqf0f365lwNpj21zO-1">
                    <mxGeometry width="50" height="50" relative="1" as="geometry">
                        <mxPoint x="738" y="186" as="sourcePoint"/>
                        <mxPoint x="934" y="186" as="targetPoint"/>
                    </mxGeometry>
                </mxCell>
                <mxCell id="LsJTqf0f365lwNpj21zO-15" value="&lt;font style=&quot;font-size: 15px&quot;&gt;按键按下&lt;/font&gt;" style="text;html=1;strokeColor=none;fillColor=none;align=center;verticalAlign=middle;whiteSpace=wrap;rounded=0;" vertex="1" parent="LsJTqf0f365lwNpj21zO-1">
                    <mxGeometry x="222" y="140" width="86" height="30" as="geometry"/>
                </mxCell>
                <mxCell id="LsJTqf0f365lwNpj21zO-20" value="&lt;font style=&quot;font-size: 15px&quot;&gt;1&lt;/font&gt;" style="text;html=1;strokeColor=none;fillColor=none;align=center;verticalAlign=middle;whiteSpace=wrap;rounded=0;fontSize=15;" vertex="1" parent="LsJTqf0f365lwNpj21zO-1">
                    <mxGeometry x="190" y="170" width="60" height="30" as="geometry"/>
                </mxCell>
                <mxCell id="LsJTqf0f365lwNpj21zO-21" value="0" style="text;html=1;strokeColor=none;fillColor=none;align=center;verticalAlign=middle;whiteSpace=wrap;rounded=0;fontSize=15;" vertex="1" parent="LsJTqf0f365lwNpj21zO-1">
                    <mxGeometry x="537" y="248" width="60" height="30" as="geometry"/>
                </mxCell>
                <mxCell id="LsJTqf0f365lwNpj21zO-24" value="" style="endArrow=none;html=1;" edge="1" parent="LsJTqf0f365lwNpj21zO-1">
                    <mxGeometry width="50" height="50" relative="1" as="geometry">
                        <mxPoint x="225" y="300" as="sourcePoint"/>
                        <mxPoint x="471" y="300" as="targetPoint"/>
                    </mxGeometry>
                </mxCell>
                <mxCell id="LsJTqf0f365lwNpj21zO-30" value="" style="endArrow=none;html=1;" edge="1" parent="LsJTqf0f365lwNpj21zO-1">
                    <mxGeometry width="50" height="50" relative="1" as="geometry">
                        <mxPoint x="471" y="385" as="sourcePoint"/>
                        <mxPoint x="780" y="385" as="targetPoint"/>
                    </mxGeometry>
                </mxCell>
                <mxCell id="LsJTqf0f365lwNpj21zO-36" value="" style="endArrow=none;html=1;" edge="1" parent="LsJTqf0f365lwNpj21zO-1">
                    <mxGeometry width="50" height="50" relative="1" as="geometry">
                        <mxPoint x="780" y="298" as="sourcePoint"/>
                        <mxPoint x="941" y="297.96000000000004" as="targetPoint"/>
                    </mxGeometry>
                </mxCell>
                <mxCell id="LsJTqf0f365lwNpj21zO-37" value="&lt;font style=&quot;font-size: 15px&quot;&gt;1&lt;/font&gt;" style="text;html=1;strokeColor=none;fillColor=none;align=center;verticalAlign=middle;whiteSpace=wrap;rounded=0;fontSize=15;" vertex="1" parent="LsJTqf0f365lwNpj21zO-1">
                    <mxGeometry x="190" y="283" width="60" height="30" as="geometry"/>
                </mxCell>
                <mxCell id="LsJTqf0f365lwNpj21zO-38" value="0" style="text;html=1;strokeColor=none;fillColor=none;align=center;verticalAlign=middle;whiteSpace=wrap;rounded=0;fontSize=15;" vertex="1" parent="LsJTqf0f365lwNpj21zO-1">
                    <mxGeometry x="537" y="361" width="60" height="30" as="geometry"/>
                </mxCell>
                <mxCell id="LsJTqf0f365lwNpj21zO-40" value="" style="endArrow=none;html=1;fontSize=15;" edge="1" parent="LsJTqf0f365lwNpj21zO-1">
                    <mxGeometry width="50" height="50" relative="1" as="geometry">
                        <mxPoint x="471" y="385" as="sourcePoint"/>
                        <mxPoint x="471" y="300" as="targetPoint"/>
                    </mxGeometry>
                </mxCell>
                <mxCell id="LsJTqf0f365lwNpj21zO-41" value="" style="endArrow=none;html=1;fontSize=15;" edge="1" parent="LsJTqf0f365lwNpj21zO-1">
                    <mxGeometry width="50" height="50" relative="1" as="geometry">
                        <mxPoint x="780" y="385" as="sourcePoint"/>
                        <mxPoint x="780" y="298" as="targetPoint"/>
                    </mxGeometry>
                </mxCell>
                <mxCell id="LsJTqf0f365lwNpj21zO-42" value="&lt;span style=&quot;font-size: 15px&quot;&gt;消抖后&lt;/span&gt;" style="text;html=1;strokeColor=none;fillColor=none;align=center;verticalAlign=middle;whiteSpace=wrap;rounded=0;" vertex="1" parent="LsJTqf0f365lwNpj21zO-1">
                    <mxGeometry x="222" y="264" width="86" height="30" as="geometry"/>
                </mxCell>
            </root>
        </mxGraphModel>
    </diagram>
</mxfile>